<svg width="44" height="60" viewBox="0 0 44 60" fill="none" xmlns="http://www.w3.org/2000/svg">
<mask id="path-1-inside-1" fill="white">
<path fill-rule="evenodd" clip-rule="evenodd" d="M0 21.7296C0 9.7479 9.7479 0 21.7298 0C33.7115 0 43.4593 9.7479 43.4595 21.7296C43.4595 36.5993 24.0135 58.4289 23.1856 59.351C22.4093 60.2156 21.0516 60.2171 20.2739 59.351C19.446 58.4289 0 36.5993 0 21.7296Z"/>
</mask>
<path fill-rule="evenodd" clip-rule="evenodd" d="M0 21.7296C0 9.7479 9.7479 0 21.7298 0C33.7115 0 43.4593 9.7479 43.4595 21.7296C43.4595 36.5993 24.0135 58.4289 23.1856 59.351C22.4093 60.2156 21.0516 60.2171 20.2739 59.351C19.446 58.4289 0 36.5993 0 21.7296Z" fill="#289FFF"/>
<path d="M43.4595 21.7296H46.4595V21.7296L43.4595 21.7296ZM23.1856 59.351L20.9534 57.3466L20.9533 57.3468L23.1856 59.351ZM20.2739 59.351L22.5062 57.3467L22.5061 57.3466L20.2739 59.351ZM21.7298 -3C8.09106 -3 -3 8.09104 -3 21.7296H3C3 11.4048 11.4047 3 21.7298 3V-3ZM46.4595 21.7296C46.4592 8.09107 35.3684 -3 21.7298 -3V3C32.0546 3 40.4593 11.4047 40.4595 21.7297L46.4595 21.7296ZM25.4177 61.3553C25.8741 60.8471 31.0488 55.0388 36.1275 47.4373C38.6668 43.6366 41.2223 39.3282 43.1519 34.9647C45.0649 30.6384 46.4595 26.0443 46.4595 21.7296H40.4595C40.4595 24.8498 39.4233 28.5605 37.6644 32.5382C35.922 36.4787 33.5642 40.4734 31.1385 44.1041C26.2872 51.3653 21.325 56.9328 20.9534 57.3466L25.4177 61.3553ZM18.0417 61.3552C20.0128 63.5506 23.451 63.546 25.4179 61.3552L20.9533 57.3468C21.3677 56.8852 22.0904 56.8836 22.5062 57.3467L18.0417 61.3552ZM-3 21.7296C-3 26.0443 -1.60543 30.6384 0.307656 34.9647C2.23719 39.3282 4.79269 43.6366 7.33201 47.4373C12.4107 55.0388 17.5854 60.8471 18.0418 61.3553L22.5061 57.3466C22.1345 56.9328 17.1723 51.3653 12.321 44.1041C9.8953 40.4734 7.53756 36.4787 5.79509 32.5382C4.03618 28.5605 3 24.8498 3 21.7296H-3Z" fill="#008DFF" mask="url(#path-1-inside-1)"/>
</svg>
