<svg width="90" height="90" viewBox="0 0 90 90" fill="none" xmlns="http://www.w3.org/2000/svg">
<path fill-rule="evenodd" clip-rule="evenodd" d="M44.9988 0C30.4044 0 13.377 8.919 13.377 31.6218C13.377 47.0268 37.7016 81.081 44.9988 90C45.3942 89.4563 45.8589 88.8221 46.3831 88.107C54.4566 77.0911 76.6206 46.8494 76.6206 31.6218C76.6206 8.919 59.5932 0 44.9988 0ZM35 20C35 18.8954 35.8954 18 37 18H41C42.1046 18 43 18.8954 43 20V43C43 44.1046 42.1046 45 41 45H37C35.8954 45 35 44.1046 35 43V20ZM49 18C47.8954 18 47 18.8954 47 20V43C47 44.1046 47.8954 45 49 45H53C54.1046 45 55 44.1046 55 43V20C55 18.8954 54.1046 18 53 18H49Z" fill="black"/>
</svg>
